<svg xmlns="http://www.w3.org/2000/svg" width="29.946" height="22.5" viewBox="0 0 29.946 22.5">
  <path id="Icon_ionic-md-backspace" data-name="Icon ionic-md-backspace" d="M30.48,6.75H11.756a2.351,2.351,0,0,0-1.983,1.1L3.023,18l6.75,10.139a2.364,2.364,0,0,0,1.983,1.111H30.473a2.507,2.507,0,0,0,2.5-2.5V9.253A2.5,2.5,0,0,0,30.48,6.75ZM26.733,22.486l-1.758,1.765L20.5,19.765l-4.479,4.486-1.758-1.765L18.738,18l-4.479-4.486,1.758-1.765L20.5,16.235l4.479-4.486,1.758,1.765L22.254,18Z" transform="translate(-3.023 -6.75)" fill="#e6e6e6"/>
</svg>
