<svg xmlns="http://www.w3.org/2000/svg" width="14.499" height="14.506" viewBox="0 0 14.499 14.506">
  <g id="Iconly_Light_Filter_2" data-name="Iconly/Light/Filter 2" transform="translate(0.5 0.5)">
    <g id="Filter">
      <path id="Stroke_1" data-name="Stroke 1" d="M1.174,0A1.184,1.184,0,0,0,0,1.193v.7A1.911,1.911,0,0,0,.517,3.2L4.151,7.068l0,0a3.867,3.867,0,0,1,1.1,2.7V13.2a.3.3,0,0,0,.439.267l2.069-1.128a.982.982,0,0,0,.507-.862V9.758a3.864,3.864,0,0,1,1.084-2.69L12.983,3.2A1.914,1.914,0,0,0,13.5,1.895v-.7A1.183,1.183,0,0,0,12.326,0Z" transform="translate(0 0)" fill="none" stroke="#9a9a9a" stroke-linecap="round" stroke-linejoin="round" stroke-miterlimit="10" stroke-width="1"/>
    </g>
  </g>
</svg>
